<svg width="220" height="45" viewBox="0 0 220 45" fill="none" xmlns="http://www.w3.org/2000/svg">
<path d="M70.7263 26.2298C70.6157 27.7597 70.0493 28.9641 69.0271 29.843C68.0115 30.722 66.6704 31.1614 65.0037 31.1614C63.1808 31.1614 61.7452 30.5494 60.6971 29.3255C59.6554 28.095 59.1346 26.4088 59.1346 24.2669V23.3977C59.1346 22.0305 59.3754 20.8261 59.8572 19.7845C60.339 18.7428 61.0258 17.9453 61.9178 17.3919C62.8162 16.832 63.8579 16.552 65.0428 16.552C66.6834 16.552 68.005 16.9915 69.0076 17.8704C70.0102 18.7493 70.5896 19.983 70.7459 21.5716H67.8162C67.7446 20.6536 67.4874 19.9895 67.0447 19.5794C66.6085 19.1627 65.9412 18.9544 65.0428 18.9544C64.0662 18.9544 63.3338 19.3059 62.8455 20.0091C62.3637 20.7057 62.1163 21.7897 62.1033 23.261V24.3352C62.1033 25.8717 62.3344 26.9947 62.7967 27.7044C63.2654 28.414 64.0011 28.7688 65.0037 28.7688C65.9086 28.7688 66.5825 28.5638 67.0252 28.1536C67.4744 27.7369 67.7316 27.0957 67.7967 26.2298H70.7263ZM84.3299 24.179C84.3299 25.5787 84.0825 26.8059 83.5877 27.8606C83.0929 28.9153 82.3832 29.7291 81.4588 30.302C80.5408 30.8749 79.4861 31.1614 78.2947 31.1614C77.1163 31.1614 76.0649 30.8782 75.1404 30.3118C74.2159 29.7454 73.4998 28.9381 72.992 27.8899C72.4842 26.8352 72.227 25.6243 72.2205 24.2571V23.554C72.2205 22.1542 72.4711 20.9238 72.9724 19.8626C73.4803 18.7949 74.1931 17.9778 75.1111 17.4114C76.0356 16.8385 77.0903 16.552 78.2752 16.552C79.4601 16.552 80.5115 16.8385 81.4295 17.4114C82.354 17.9778 83.0668 18.7949 83.5681 19.8626C84.076 20.9238 84.3299 22.151 84.3299 23.5442V24.179ZM81.3611 23.5345C81.3611 22.0436 81.0942 20.9108 80.5603 20.136C80.0265 19.3613 79.2648 18.9739 78.2752 18.9739C77.2921 18.9739 76.5336 19.358 75.9998 20.1263C75.4659 20.888 75.1957 22.0078 75.1892 23.4856V24.179C75.1892 25.6308 75.4562 26.7571 75.99 27.5579C76.5239 28.3587 77.2921 28.7591 78.2947 28.7591C79.2778 28.7591 80.033 28.3749 80.5603 27.6067C81.0877 26.832 81.3546 25.7057 81.3611 24.2278V23.5345ZM98.0213 30.9661H95.0916L89.3885 21.6106V30.9661H86.4588V16.7473H89.3885L95.1013 26.1223V16.7473H98.0213V30.9661ZM110.99 19.1204H106.635V30.9661H103.705V19.1204H99.408V16.7473H110.99V19.1204ZM119.525 28.0364H114.388L113.412 30.9661H110.297L115.59 16.7473H118.304L123.627 30.9661H120.512L119.525 28.0364ZM115.179 25.6634H118.734L116.947 20.3411L115.179 25.6634ZM134.486 19.1204H130.131V30.9661H127.201V19.1204H122.904V16.7473H134.486V19.1204ZM147.572 24.179C147.572 25.5787 147.325 26.8059 146.83 27.8606C146.335 28.9153 145.625 29.7291 144.701 30.302C143.783 30.8749 142.728 31.1614 141.537 31.1614C140.359 31.1614 139.307 30.8782 138.383 30.3118C137.458 29.7454 136.742 28.9381 136.234 27.8899C135.726 26.8352 135.469 25.6243 135.463 24.2571V23.554C135.463 22.1542 135.713 20.9238 136.215 19.8626C136.722 18.7949 137.435 17.9778 138.353 17.4114C139.278 16.8385 140.332 16.552 141.517 16.552C142.702 16.552 143.754 16.8385 144.672 17.4114C145.596 17.9778 146.309 18.7949 146.81 19.8626C147.318 20.9238 147.572 22.151 147.572 23.5442V24.179ZM144.603 23.5345C144.603 22.0436 144.336 20.9108 143.803 20.136C143.269 19.3613 142.507 18.9739 141.517 18.9739C140.534 18.9739 139.776 19.358 139.242 20.1263C138.708 20.888 138.438 22.0078 138.431 23.4856V24.179C138.431 25.6308 138.698 26.7571 139.232 27.5579C139.766 28.3587 140.534 28.7591 141.537 28.7591C142.52 28.7591 143.275 28.3749 143.803 27.6067C144.33 26.832 144.597 25.7057 144.603 24.2278V23.5345ZM157.074 27.2356C157.074 26.6822 156.879 26.2591 156.488 25.9661C156.097 25.6666 155.394 25.3541 154.379 25.0286C153.363 24.6966 152.559 24.371 151.967 24.052C150.352 23.1796 149.545 22.0045 149.545 20.5266C149.545 19.7584 149.76 19.0748 150.189 18.4759C150.625 17.8704 151.247 17.3984 152.054 17.0598C152.868 16.7213 153.78 16.552 154.789 16.552C155.804 16.552 156.709 16.7376 157.504 17.1087C158.298 17.4733 158.913 17.9908 159.349 18.6614C159.792 19.332 160.013 20.0937 160.013 20.9466H157.084C157.084 20.2955 156.879 19.791 156.469 19.4329C156.058 19.0683 155.482 18.886 154.74 18.886C154.024 18.886 153.467 19.039 153.07 19.345C152.673 19.6445 152.474 20.0416 152.474 20.5364C152.474 20.9986 152.706 21.386 153.168 21.6985C153.637 22.011 154.323 22.304 155.228 22.5774C156.895 23.0787 158.109 23.7005 158.871 24.4427C159.633 25.1848 160.013 26.1093 160.013 27.2161C160.013 28.4466 159.548 29.4134 158.617 30.1165C157.686 30.8131 156.433 31.1614 154.857 31.1614C153.763 31.1614 152.767 30.9628 151.869 30.5657C150.97 30.1621 150.284 29.6119 149.808 28.9153C149.34 28.2187 149.105 27.4114 149.105 26.4934H152.045C152.045 28.0624 152.982 28.847 154.857 28.847C155.554 28.847 156.097 28.707 156.488 28.427C156.879 28.1406 157.074 27.7434 157.074 27.2356Z" fill="white" fill-opacity="0.85"/>
<rect x="2" y="2" width="216" height="41" rx="6" stroke="white" stroke-opacity="0.85" stroke-width="4"/>
</svg>
